{
	"patcher" : 	{
		"fileversion" : 1,
		"appversion" : 		{
			"major" : 8,
			"minor" : 5,
			"revision" : 6,
			"architecture" : "x64",
			"modernui" : 1
		}
,
		"classnamespace" : "box",
		"rect" : [ 260.0, 87.0, 1204.0, 929.0 ],
		"bglocked" : 0,
		"openinpresentation" : 0,
		"default_fontsize" : 12.0,
		"default_fontface" : 0,
		"default_fontname" : "Arial",
		"gridonopen" : 1,
		"gridsize" : [ 15.0, 15.0 ],
		"gridsnaponopen" : 1,
		"objectsnaponopen" : 1,
		"statusbarvisible" : 2,
		"toolbarvisible" : 1,
		"lefttoolbarpinned" : 0,
		"toptoolbarpinned" : 0,
		"righttoolbarpinned" : 0,
		"bottomtoolbarpinned" : 0,
		"toolbars_unpinned_last_save" : 0,
		"tallnewobj" : 0,
		"boxanimatetime" : 200,
		"enablehscroll" : 1,
		"enablevscroll" : 1,
		"devicewidth" : 0.0,
		"description" : "",
		"digest" : "",
		"tags" : "",
		"style" : "",
		"subpatcher_template" : "",
		"assistshowspatchername" : 0,
		"boxes" : [ 			{
				"box" : 				{
					"id" : "obj-292",
					"linecount" : 2,
					"maxclass" : "comment",
					"numinlets" : 1,
					"numoutlets" : 0,
					"patching_rect" : [ 880.829999999999927, 2778.5, 135.0, 33.0 ],
					"text" : "clears [bach.roll] when no solutions are found"
				}

			}
, 			{
				"box" : 				{
					"id" : "obj-291",
					"maxclass" : "comment",
					"numinlets" : 1,
					"numoutlets" : 0,
					"patching_rect" : [ 338.329999999999984, 2784.0, 44.0, 20.0 ],
					"text" : "onsets"
				}

			}
, 			{
				"box" : 				{
					"id" : "obj-290",
					"maxclass" : "comment",
					"numinlets" : 1,
					"numoutlets" : 0,
					"patching_rect" : [ 567.829999999999927, 2890.0, 138.0, 20.0 ],
					"text" : "wrap with extra brackets"
				}

			}
, 			{
				"box" : 				{
					"id" : "obj-289",
					"maxclass" : "comment",
					"numinlets" : 1,
					"numoutlets" : 0,
					"patching_rect" : [ 545.829999999999927, 2836.0, 155.0, 20.0 ],
					"text" : "remove trichord duplicates"
				}

			}
, 			{
				"box" : 				{
					"bubble" : 1,
					"bubbleside" : 2,
					"id" : "obj-285",
					"linecount" : 2,
					"maxclass" : "comment",
					"numinlets" : 1,
					"numoutlets" : 0,
					"patching_rect" : [ 666.829999999999927, 2713.0, 175.0, 52.0 ],
					"text" : "sort the pitches in every trichord from lowest to highest"
				}

			}
, 			{
				"box" : 				{
					"id" : "obj-284",
					"linecount" : 3,
					"maxclass" : "comment",
					"numinlets" : 1,
					"numoutlets" : 0,
					"patching_rect" : [ 35.829999999999984, 2602.5, 241.0, 47.0 ],
					"text" : "when no solutions are found, we get a 'null' value. We use this to clear [bach.roll] when that happens."
				}

			}
, 			{
				"box" : 				{
					"id" : "obj-281",
					"linecount" : 5,
					"maxclass" : "comment",
					"numinlets" : 1,
					"numoutlets" : 0,
					"patching_rect" : [ 432.03000000000003, 2506.0, 122.0, 74.0 ],
					"text" : "replace constraint with true (1) or false (0) value. True if constraint is satisfied, false if not."
				}

			}
, 			{
				"box" : 				{
					"id" : "obj-280",
					"maxclass" : "comment",
					"numinlets" : 1,
					"numoutlets" : 0,
					"patching_rect" : [ 448.03000000000003, 2314.0, 115.0, 20.0 ],
					"text" : "current contraint set"
				}

			}
, 			{
				"box" : 				{
					"bubble" : 1,
					"bubbleside" : 2,
					"id" : "obj-278",
					"maxclass" : "comment",
					"numinlets" : 1,
					"numoutlets" : 0,
					"patching_rect" : [ 664.487589285714193, 2263.5, 282.0, 39.0 ],
					"text" : "Do this for every possible trichord in the input scale"
				}

			}
, 			{
				"box" : 				{
					"id" : "obj-276",
					"linecount" : 4,
					"maxclass" : "comment",
					"numinlets" : 1,
					"numoutlets" : 0,
					"patching_rect" : [ 19.329999999999984, 2073.0, 254.0, 60.0 ],
					"text" : "make 3 copies of the scale, representing the possible values that each of the pitches in the trichord could take. In CSP, this is known as the domain of each variable."
				}

			}
, 			{
				"box" : 				{
					"id" : "obj-275",
					"linecount" : 5,
					"maxclass" : "comment",
					"numinlets" : 1,
					"numoutlets" : 0,
					"patching_rect" : [ 361.829999999999984, 2202.75, 252.0, 74.0 ],
					"text" : "we create a constraint named \"trichord\", which will consider the domains 1, 2, and 3 together. In this case, this is just the same input scale, 3 times. Notice that the name is \"trichord\" is arbitrary."
				}

			}
, 			{
				"box" : 				{
					"id" : "obj-274",
					"linecount" : 3,
					"maxclass" : "comment",
					"numinlets" : 1,
					"numoutlets" : 0,
					"patching_rect" : [ 289.829999999999984, 2497.0, 129.0, 47.0 ],
					"text" : "@solutions 0 means return all possible solutions"
				}

			}
, 			{
				"box" : 				{
					"id" : "obj-273",
					"maxclass" : "comment",
					"numinlets" : 1,
					"numoutlets" : 0,
					"patching_rect" : [ 793.329999999999927, 2560.0, 129.0, 20.0 ],
					"text" : "are primeforms equal?"
				}

			}
, 			{
				"box" : 				{
					"id" : "obj-272",
					"maxclass" : "comment",
					"numinlets" : 1,
					"numoutlets" : 0,
					"patching_rect" : [ 592.829999999999927, 2466.0, 86.0, 20.0 ],
					"text" : "get prime form"
				}

			}
, 			{
				"box" : 				{
					"id" : "obj-271",
					"linecount" : 2,
					"maxclass" : "comment",
					"numinlets" : 1,
					"numoutlets" : 0,
					"patching_rect" : [ 598.329999999999927, 2381.25, 75.0, 33.0 ],
					"text" : "to MIDI pitch values"
				}

			}
, 			{
				"box" : 				{
					"id" : "obj-270",
					"maxclass" : "comment",
					"numinlets" : 1,
					"numoutlets" : 0,
					"patching_rect" : [ 605.829999999999927, 2322.5, 83.0, 20.0 ],
					"text" : "get trichord llll"
				}

			}
, 			{
				"box" : 				{
					"id" : "obj-269",
					"maxclass" : "comment",
					"numinlets" : 1,
					"numoutlets" : 0,
					"patching_rect" : [ 610.829999999999927, 2524.0, 84.0, 20.0 ],
					"text" : "update results"
				}

			}
, 			{
				"box" : 				{
					"id" : "obj-268",
					"maxclass" : "comment",
					"numinlets" : 1,
					"numoutlets" : 0,
					"patching_rect" : [ 414.829999999999984, 1883.0, 77.0, 20.0 ],
					"text" : "add brackets"
				}

			}
, 			{
				"box" : 				{
					"id" : "obj-267",
					"maxclass" : "comment",
					"numinlets" : 1,
					"numoutlets" : 0,
					"patching_rect" : [ 215.829999999999984, 1882.0, 44.0, 20.0 ],
					"text" : "onsets"
				}

			}
, 			{
				"box" : 				{
					"id" : "obj-266",
					"maxclass" : "comment",
					"numinlets" : 1,
					"numoutlets" : 0,
					"patching_rect" : [ 185.829999999999984, 1805.0, 73.0, 20.0 ],
					"text" : "to midicents"
				}

			}
, 			{
				"box" : 				{
					"id" : "obj-265",
					"maxclass" : "comment",
					"numinlets" : 1,
					"numoutlets" : 0,
					"patching_rect" : [ 174.829999999999984, 1767.0, 215.0, 20.0 ],
					"text" : "store pitch collection (MIDI pitch value)"
				}

			}
, 			{
				"box" : 				{
					"id" : "obj-264",
					"linecount" : 2,
					"maxclass" : "comment",
					"numinlets" : 1,
					"numoutlets" : 0,
					"patching_rect" : [ 849.379285714285515, 975.5, 109.0, 33.0 ],
					"text" : "update arpeggio if contour changes"
				}

			}
, 			{
				"box" : 				{
					"id" : "obj-263",
					"maxclass" : "comment",
					"numinlets" : 1,
					"numoutlets" : 0,
					"patching_rect" : [ 552.829999999999927, 1929.0, 137.0, 20.0 ],
					"text" : "visualize pitch collection"
				}

			}
, 			{
				"box" : 				{
					"fontname" : "Ableton Sans Light",
					"fontsize" : 14.0,
					"id" : "obj-261",
					"linecount" : 5,
					"maxclass" : "comment",
					"numinlets" : 1,
					"numoutlets" : 0,
					"patching_rect" : [ 6.829999999999984, 1560.0, 623.0, 91.0 ],
					"text" : "This example uses shows a musical example of constraint satisfaction problems (CSPs), which can be addressed using [bach.constraints] object. In this case, we are interested in the following CSP: Given a pitch collection (e.g., a scale) and a trichord in prime form, find all possible trichords in the pitch collection with the same primeform. This allows us to quickly find all the instances, if any, of a chord type and its inversion exist within a pitch collection.",
					"textcolor" : [ 0.275, 0.275, 0.275, 1.0 ]
				}

			}
, 			{
				"box" : 				{
					"id" : "obj-260",
					"linecount" : 3,
					"maxclass" : "comment",
					"numinlets" : 1,
					"numoutlets" : 0,
					"patching_rect" : [ 52.500000000000085, 895.5, 119.0, 47.0 ],
					"text" : "remove all brackets, and wrap all pitches with single brackets"
				}

			}
, 			{
				"box" : 				{
					"id" : "obj-255",
					"maxclass" : "comment",
					"numinlets" : 1,
					"numoutlets" : 0,
					"patching_rect" : [ 586.928571428571558, 1223.875, 58.0, 20.0 ],
					"text" : "durations"
				}

			}
, 			{
				"box" : 				{
					"id" : "obj-254",
					"maxclass" : "comment",
					"numinlets" : 1,
					"numoutlets" : 0,
					"patching_rect" : [ 345.97785714285709, 1223.875, 44.0, 20.0 ],
					"text" : "onsets"
				}

			}
, 			{
				"box" : 				{
					"id" : "obj-245",
					"linecount" : 3,
					"maxclass" : "comment",
					"numinlets" : 1,
					"numoutlets" : 0,
					"patching_rect" : [ 1069.428571428571331, 883.5, 100.0, 47.0 ],
					"text" : "sort chord's pitches from lowest to highest"
				}

			}
, 			{
				"box" : 				{
					"bubble" : 1,
					"bubbleside" : 2,
					"id" : "obj-244",
					"maxclass" : "comment",
					"numinlets" : 1,
					"numoutlets" : 0,
					"patching_rect" : [ 896.928571428571331, 1046.5, 192.0, 39.0 ],
					"text" : "do this for every index (inner loop)"
				}

			}
, 			{
				"box" : 				{
					"id" : "obj-243",
					"maxclass" : "comment",
					"numinlets" : 1,
					"numoutlets" : 0,
					"patching_rect" : [ 871.428571428571331, 1141.0, 235.0, 20.0 ],
					"text" : "replace index with pitch from current chord"
				}

			}
, 			{
				"box" : 				{
					"id" : "obj-242",
					"maxclass" : "comment",
					"numinlets" : 1,
					"numoutlets" : 0,
					"patching_rect" : [ 413.128571428571206, 1131.0, 197.0, 20.0 ],
					"text" : "replace current chord with arpeggio"
				}

			}
, 			{
				"box" : 				{
					"id" : "obj-240",
					"maxclass" : "comment",
					"numinlets" : 1,
					"numoutlets" : 0,
					"patching_rect" : [ 432.357142857142833, 497.0, 79.0, 20.0 ],
					"text" : "current chord"
				}

			}
, 			{
				"box" : 				{
					"angle" : 270.0,
					"bgcolor" : [ 1.0, 0.682352941176471, 0.0, 0.18 ],
					"border" : 3,
					"bordercolor" : [ 1.0, 0.682352941176471, 0.0, 1.0 ],
					"id" : "obj-239",
					"maxclass" : "panel",
					"mode" : 0,
					"numinlets" : 1,
					"numoutlets" : 0,
					"patching_rect" : [ 984.928571428571331, 1086.0, 115.901428571428596, 53.0 ],
					"proportion" : 0.5,
					"rounded" : 36
				}

			}
, 			{
				"box" : 				{
					"id" : "obj-238",
					"linecount" : 4,
					"maxclass" : "comment",
					"numinlets" : 1,
					"numoutlets" : 0,
					"patching_rect" : [ 610.428571428571331, 1025.5, 233.0, 60.0 ],
					"text" : "scale contour from 0-to-1 range, to 1-to-N range, where N is the chord size. These will be the indices for each pitch in the current chord"
				}

			}
, 			{
				"box" : 				{
					"bubble" : 1,
					"bubbleside" : 2,
					"id" : "obj-236",
					"maxclass" : "comment",
					"numinlets" : 1,
					"numoutlets" : 0,
					"patching_rect" : [ 775.428571428571331, 780.0, 264.0, 39.0 ],
					"text" : "do this for every normalized index (inner loop 1)"
				}

			}
, 			{
				"box" : 				{
					"id" : "obj-234",
					"linecount" : 5,
					"maxclass" : "comment",
					"numinlets" : 1,
					"numoutlets" : 0,
					"patching_rect" : [ 552.35714285714289, 793.0, 175.0, 74.0 ],
					"text" : "N equally spaced values from 0 to 1, where N is the arpeggio size. It's used to sample from the arpeggio contour in the [function] object. (see"
				}

			}
, 			{
				"box" : 				{
					"id" : "obj-232",
					"maxclass" : "comment",
					"numinlets" : 1,
					"numoutlets" : 0,
					"patching_rect" : [ 615.095238095238074, 559.0, 83.0, 20.0 ],
					"text" : "get chord size"
				}

			}
, 			{
				"box" : 				{
					"bubble" : 1,
					"bubbleside" : 2,
					"id" : "obj-231",
					"maxclass" : "comment",
					"numinlets" : 1,
					"numoutlets" : 0,
					"patching_rect" : [ 853.829999999999927, 449.0, 203.0, 39.0 ],
					"text" : "do this for every chord (outer loop)"
				}

			}
, 			{
				"box" : 				{
					"id" : "obj-216",
					"linecount" : 10,
					"maxclass" : "comment",
					"numinlets" : 1,
					"numoutlets" : 0,
					"patching_rect" : [ 180.89285714285711, 575.0, 211.0, 141.0 ],
					"text" : "@maxdepth -2 tells [bach.mapelem] to only look for elements that are 2-levels deep (depth = 2) and pass them to the lambda loop. In this case, it ensures we're handling chords, instead of individual pitches.\n\n@unwrap 1 simply removes the enclosing brackets of each chord, for convenience."
				}

			}
, 			{
				"box" : 				{
					"fontname" : "Ableton Sans Light",
					"fontsize" : 14.0,
					"id" : "obj-214",
					"linecount" : 3,
					"maxclass" : "comment",
					"numinlets" : 1,
					"numoutlets" : 0,
					"patching_rect" : [ 14.0, 201.0, 620.0, 57.0 ],
					"text" : "This example shows a parametric arpeggiator, which given a chord progression (llll of midicents), an arpeggio size (integer) and an arpeggio contour (i.e., the [function] object), returns a series of arpeggios for every chord.",
					"textcolor" : [ 0.275, 0.275, 0.275, 1.0 ]
				}

			}
, 			{
				"box" : 				{
					"bgmode" : 0,
					"border" : 0,
					"clickthrough" : 0,
					"enablehscroll" : 0,
					"enablevscroll" : 0,
					"id" : "obj-2",
					"lockeddragscroll" : 0,
					"lockedsize" : 0,
					"maxclass" : "bpatcher",
					"name" : "utils.credit.maxpat",
					"numinlets" : 0,
					"numoutlets" : 0,
					"offset" : [ 0.0, 0.0 ],
					"patching_rect" : [ 341.924999999999955, 3.0, 523.25, 98.0 ],
					"viewvisibility" : 1
				}

			}
, 			{
				"box" : 				{
					"fontname" : "Ableton Sans Light",
					"fontsize" : 14.0,
					"id" : "obj-168",
					"maxclass" : "comment",
					"numinlets" : 1,
					"numoutlets" : 0,
					"patching_rect" : [ 230.549999999999955, 140.0, 746.0, 23.0 ],
					"text" : "These tutorials show more elaborate examples of CAC in bach.",
					"textcolor" : [ 0.275, 0.275, 0.275, 1.0 ],
					"textjustification" : 1
				}

			}
, 			{
				"box" : 				{
					"fontname" : "Ableton Sans Bold",
					"fontsize" : 24.0,
					"id" : "obj-169",
					"maxclass" : "comment",
					"numinlets" : 1,
					"numoutlets" : 0,
					"patching_rect" : [ 239.549999999999955, 103.0, 728.0, 35.0 ],
					"text" : "Advanced tutorials",
					"textjustification" : 1
				}

			}
, 			{
				"box" : 				{
					"fontface" : 1,
					"id" : "obj-175",
					"maxclass" : "comment",
					"numinlets" : 1,
					"numoutlets" : 0,
					"patching_rect" : [ 732.829999999999927, 2451.0, 100.0, 20.0 ],
					"text" : "(014) trichord"
				}

			}
, 			{
				"box" : 				{
					"id" : "obj-174",
					"maxclass" : "newobj",
					"numinlets" : 0,
					"numoutlets" : 1,
					"outlettype" : [ "" ],
					"patching_rect" : [ 50.829999999999984, 1717.0, 60.0, 22.0 ],
					"text" : "r to-finder"
				}

			}
, 			{
				"box" : 				{
					"id" : "obj-173",
					"maxclass" : "newobj",
					"numinlets" : 2,
					"numoutlets" : 1,
					"outlettype" : [ "" ],
					"patching_rect" : [ 117.829999999999984, 1765.0, 55.0, 22.0 ],
					"saved_object_attributes" : 					{
						"embed" : 0,
						"versionnumber" : 80300
					}
,
					"text" : "bach.reg"
				}

			}
, 			{
				"box" : 				{
					"id" : "obj-172",
					"maxclass" : "newobj",
					"numinlets" : 1,
					"numoutlets" : 0,
					"patching_rect" : [ 696.829999999999927, 2523.0, 62.0, 22.0 ],
					"text" : "s to-finder"
				}

			}
, 			{
				"box" : 				{
					"id" : "obj-171",
					"maxclass" : "newobj",
					"numinlets" : 1,
					"numoutlets" : 2,
					"outlettype" : [ "bang", "" ],
					"patching_rect" : [ 696.829999999999927, 2488.0, 94.5, 22.0 ],
					"text" : "t b l"
				}

			}
, 			{
				"box" : 				{
					"id" : "obj-170",
					"maxclass" : "message",
					"numinlets" : 2,
					"numoutlets" : 1,
					"outlettype" : [ "" ],
					"patching_rect" : [ 696.829999999999927, 2449.0, 35.0, 22.0 ],
					"text" : "0 1 4"
				}

			}
, 			{
				"box" : 				{
					"fontface" : 1,
					"id" : "obj-167",
					"maxclass" : "comment",
					"numinlets" : 1,
					"numoutlets" : 0,
					"patching_rect" : [ 275.829999999999984, 1721.0, 99.0, 20.0 ],
					"text" : "nonatonic scale"
				}

			}
, 			{
				"box" : 				{
					"id" : "obj-166",
					"maxclass" : "message",
					"numinlets" : 2,
					"numoutlets" : 1,
					"outlettype" : [ "" ],
					"patching_rect" : [ 117.829999999999984, 1720.0, 155.0, 22.0 ],
					"text" : "60 61 62 64 65 66 68 69 70"
				}

			}
, 			{
				"box" : 				{
					"fontface" : 1,
					"id" : "obj-165",
					"maxclass" : "comment",
					"numinlets" : 1,
					"numoutlets" : 0,
					"patching_rect" : [ 275.829999999999984, 1689.0, 95.0, 20.0 ],
					"text" : "octatonic scale"
				}

			}
, 			{
				"box" : 				{
					"fontface" : 1,
					"id" : "obj-164",
					"maxclass" : "comment",
					"numinlets" : 1,
					"numoutlets" : 0,
					"patching_rect" : [ 275.829999999999984, 1661.0, 75.0, 20.0 ],
					"text" : "major scale"
				}

			}
, 			{
				"box" : 				{
					"id" : "obj-161",
					"maxclass" : "live.line",
					"numinlets" : 1,
					"numoutlets" : 0,
					"patching_rect" : [ 6.829999999999984, 1524.0, 1185.0, 5.0 ]
				}

			}
, 			{
				"box" : 				{
					"bgcolor" : [ 0.917647058823529, 0.917647058823529, 0.917647058823529, 1.0 ],
					"fontface" : 1,
					"fontsize" : 18.0,
					"id" : "obj-162",
					"maxclass" : "comment",
					"numinlets" : 1,
					"numoutlets" : 0,
					"patching_rect" : [ 6.829999999999984, 1531.0, 231.0, 27.0 ],
					"text" : "Scale's trichord finder"
				}

			}
, 			{
				"box" : 				{
					"id" : "obj-98",
					"maxclass" : "message",
					"numinlets" : 2,
					"numoutlets" : 1,
					"outlettype" : [ "" ],
					"patching_rect" : [ 843.829999999999927, 2784.0, 35.0, 22.0 ],
					"text" : "clear"
				}

			}
, 			{
				"box" : 				{
					"id" : "obj-112",
					"maxclass" : "newobj",
					"numinlets" : 2,
					"numoutlets" : 2,
					"outlettype" : [ "", "" ],
					"patching_rect" : [ 275.829999999999984, 2615.0, 587.0, 22.0 ],
					"text" : "bach.filternull"
				}

			}
, 			{
				"box" : 				{
					"id" : "obj-120",
					"maxclass" : "newobj",
					"numinlets" : 1,
					"numoutlets" : 1,
					"outlettype" : [ "bang" ],
					"patching_rect" : [ 696.829999999999927, 2342.25, 58.0, 22.0 ],
					"text" : "loadbang"
				}

			}
, 			{
				"box" : 				{
					"fontface" : 1,
					"id" : "obj-125",
					"maxclass" : "comment",
					"numinlets" : 1,
					"numoutlets" : 0,
					"patching_rect" : [ 732.829999999999927, 2414.0, 97.0, 20.0 ],
					"text" : "quartal trichord"
				}

			}
, 			{
				"box" : 				{
					"id" : "obj-126",
					"maxclass" : "message",
					"numinlets" : 2,
					"numoutlets" : 1,
					"outlettype" : [ "" ],
					"patching_rect" : [ 696.829999999999927, 2414.0, 35.0, 22.0 ],
					"text" : "0 2 7"
				}

			}
, 			{
				"box" : 				{
					"fontface" : 1,
					"id" : "obj-127",
					"maxclass" : "comment",
					"numinlets" : 1,
					"numoutlets" : 0,
					"patching_rect" : [ 732.829999999999927, 2381.25, 127.0, 20.0 ],
					"text" : "major/minor trichord"
				}

			}
, 			{
				"box" : 				{
					"id" : "obj-132",
					"maxclass" : "message",
					"numinlets" : 2,
					"numoutlets" : 1,
					"outlettype" : [ "" ],
					"patching_rect" : [ 382.430000000000007, 2784.0, 45.0, 22.0 ],
					"text" : "[0 500]"
				}

			}
, 			{
				"box" : 				{
					"id" : "obj-136",
					"maxclass" : "newobj",
					"numinlets" : 2,
					"numoutlets" : 1,
					"outlettype" : [ "" ],
					"patching_rect" : [ 582.829999999999927, 2414.0, 65.0, 22.0 ],
					"text" : "bach./ 100"
				}

			}
, 			{
				"box" : 				{
					"id" : "obj-137",
					"maxclass" : "newobj",
					"numinlets" : 1,
					"numoutlets" : 1,
					"outlettype" : [ "" ],
					"patching_rect" : [ 275.829999999999984, 2053.5, 54.0, 22.0 ],
					"saved_object_attributes" : 					{
						"versionnumber" : 80300
					}
,
					"text" : "bach.flat"
				}

			}
, 			{
				"box" : 				{
					"id" : "obj-138",
					"maxclass" : "newobj",
					"numinlets" : 1,
					"numoutlets" : 1,
					"outlettype" : [ "bang" ],
					"patching_rect" : [ 350.829999999999984, 2127.0, 58.0, 22.0 ],
					"text" : "loadbang"
				}

			}
, 			{
				"box" : 				{
					"bwcompatibility" : 80300,
					"defaultnoteslots" : [ "null" ],
					"embed" : 0,
					"fontface" : 0,
					"fontname" : "Arial",
					"fontsize" : 12.0,
					"id" : "obj-139",
					"loop" : [ 0.0, 1000.0 ],
					"maxclass" : "bach.roll",
					"numinlets" : 6,
					"numoutlets" : 8,
					"numvoices" : 1,
					"out" : "nnnnnnn",
					"outlettype" : [ "", "", "", "", "", "", "", "bang" ],
					"patching_rect" : [ 275.829999999999984, 2927.0, 552.0, 113.0 ],
					"pitcheditrange" : [ "null" ],
					"stafflines" : [ 5 ],
					"textcolor" : [ 0.0, 0.0, 0.0, 1.0 ],
					"versionnumber" : 80300,
					"voicenames" : [ "[", "]" ],
					"voicespacing" : [ 0.0, 17.0 ],
					"vzoom" : 100.0
				}

			}
, 			{
				"box" : 				{
					"id" : "obj-140",
					"maxclass" : "message",
					"numinlets" : 2,
					"numoutlets" : 1,
					"outlettype" : [ "" ],
					"patching_rect" : [ 117.829999999999984, 1689.0, 139.0, 22.0 ],
					"text" : "60 62 63 65 66 68 69 71"
				}

			}
, 			{
				"box" : 				{
					"id" : "obj-141",
					"maxclass" : "newobj",
					"numinlets" : 3,
					"numoutlets" : 2,
					"outlettype" : [ "", "int" ],
					"patching_rect" : [ 591.829999999999927, 2053.5, 95.0, 22.0 ],
					"text" : "bach.ezmidiplay"
				}

			}
, 			{
				"box" : 				{
					"id" : "obj-142",
					"maxclass" : "message",
					"numinlets" : 2,
					"numoutlets" : 1,
					"outlettype" : [ "" ],
					"patching_rect" : [ 265.163333333333355, 1882.0, 45.0, 22.0 ],
					"text" : "[0 500]"
				}

			}
, 			{
				"box" : 				{
					"id" : "obj-143",
					"maxclass" : "newobj",
					"numinlets" : 2,
					"numoutlets" : 1,
					"outlettype" : [ "" ],
					"patching_rect" : [ 117.829999999999984, 1804.0, 66.0, 22.0 ],
					"text" : "bach.* 100"
				}

			}
, 			{
				"box" : 				{
					"id" : "obj-144",
					"maxclass" : "newobj",
					"numinlets" : 1,
					"numoutlets" : 1,
					"outlettype" : [ "" ],
					"patching_rect" : [ 338.829999999999984, 1882.0, 74.0, 22.0 ],
					"saved_object_attributes" : 					{
						"versionnumber" : 80300
					}
,
					"text" : "bach.wrap 1"
				}

			}
, 			{
				"box" : 				{
					"id" : "obj-145",
					"maxclass" : "message",
					"numinlets" : 2,
					"numoutlets" : 1,
					"outlettype" : [ "" ],
					"patching_rect" : [ 117.829999999999984, 1659.0, 122.0, 22.0 ],
					"text" : "60 62 64 65 67 69 71"
				}

			}
, 			{
				"box" : 				{
					"id" : "obj-146",
					"maxclass" : "newobj",
					"numinlets" : 1,
					"numoutlets" : 4,
					"outlettype" : [ "dump", "bang", "bang", "" ],
					"patching_rect" : [ 117.829999999999984, 1846.0, 240.0, 22.0 ],
					"text" : "t dump b b l"
				}

			}
, 			{
				"box" : 				{
					"bwcompatibility" : 80300,
					"defaultnoteslots" : [ "null" ],
					"embed" : 0,
					"fontface" : 0,
					"fontname" : "Arial",
					"fontsize" : 12.0,
					"id" : "obj-147",
					"loop" : [ 0.0, 1000.0 ],
					"maxclass" : "bach.roll",
					"numinlets" : 6,
					"numoutlets" : 8,
					"numvoices" : 1,
					"out" : "nnnnnnn",
					"outlettype" : [ "", "", "", "", "", "", "", "bang" ],
					"patching_rect" : [ 117.829999999999984, 1928.0, 572.0, 114.0 ],
					"pitcheditrange" : [ "null" ],
					"stafflines" : [ 5 ],
					"textcolor" : [ 0.0, 0.0, 0.0, 1.0 ],
					"versionnumber" : 80300,
					"voicenames" : [ "[", "]" ],
					"voicespacing" : [ 0.0, 17.0 ],
					"vzoom" : 100.0
				}

			}
, 			{
				"box" : 				{
					"id" : "obj-148",
					"maxclass" : "newobj",
					"numinlets" : 2,
					"numoutlets" : 2,
					"outlettype" : [ "", "" ],
					"patching_rect" : [ 489.03000000000003, 2784.0, 230.0, 22.0 ],
					"saved_object_attributes" : 					{
						"versionnumber" : 80300
					}
,
					"text" : "bach.mapelem @maxdepth 1 @unwrap 1"
				}

			}
, 			{
				"box" : 				{
					"id" : "obj-149",
					"maxclass" : "newobj",
					"numinlets" : 2,
					"numoutlets" : 3,
					"outlettype" : [ "", "", "" ],
					"patching_rect" : [ 489.03000000000003, 2835.0, 57.0, 22.0 ],
					"saved_object_attributes" : 					{
						"versionnumber" : 80300
					}
,
					"text" : "bach.thin"
				}

			}
, 			{
				"box" : 				{
					"id" : "obj-150",
					"maxclass" : "newobj",
					"numinlets" : 2,
					"numoutlets" : 4,
					"outlettype" : [ "", "", "", "" ],
					"patching_rect" : [ 739.329999999999927, 2784.0, 58.0, 22.0 ],
					"saved_object_attributes" : 					{
						"versionnumber" : 80300
					}
,
					"text" : "bach.sort"
				}

			}
, 			{
				"box" : 				{
					"id" : "obj-151",
					"maxclass" : "newobj",
					"numinlets" : 3,
					"numoutlets" : 2,
					"outlettype" : [ "", "int" ],
					"patching_rect" : [ 732.687142857142817, 3063.0, 95.0, 22.0 ],
					"text" : "bach.ezmidiplay"
				}

			}
, 			{
				"box" : 				{
					"id" : "obj-152",
					"maxclass" : "newobj",
					"numinlets" : 1,
					"numoutlets" : 3,
					"outlettype" : [ "bang", "bang", "" ],
					"patching_rect" : [ 275.829999999999984, 2743.0, 232.199999999999989, 22.0 ],
					"text" : "t b b l"
				}

			}
, 			{
				"box" : 				{
					"id" : "obj-153",
					"maxclass" : "newobj",
					"numinlets" : 1,
					"numoutlets" : 1,
					"outlettype" : [ "" ],
					"patching_rect" : [ 489.03000000000003, 2889.0, 74.0, 22.0 ],
					"saved_object_attributes" : 					{
						"versionnumber" : 80300
					}
,
					"text" : "bach.wrap 1"
				}

			}
, 			{
				"box" : 				{
					"id" : "obj-154",
					"maxclass" : "message",
					"numinlets" : 2,
					"numoutlets" : 1,
					"outlettype" : [ "" ],
					"patching_rect" : [ 696.829999999999927, 2379.25, 35.0, 22.0 ],
					"text" : "0 3 7"
				}

			}
, 			{
				"box" : 				{
					"id" : "obj-155",
					"maxclass" : "newobj",
					"numinlets" : 2,
					"numoutlets" : 1,
					"outlettype" : [ "int" ],
					"patching_rect" : [ 582.329999999999927, 2558.0, 209.0, 22.0 ],
					"saved_object_attributes" : 					{
						"versionnumber" : 80300
					}
,
					"text" : "bach.=="
				}

			}
, 			{
				"box" : 				{
					"id" : "obj-156",
					"maxclass" : "newobj",
					"numinlets" : 1,
					"numoutlets" : 2,
					"outlettype" : [ "", "bang" ],
					"patching_rect" : [ 582.829999999999927, 2344.5, 106.0, 22.0 ],
					"saved_object_attributes" : 					{
						"versionnumber" : 80300
					}
,
					"text" : "bach.keys trichord"
				}

			}
, 			{
				"box" : 				{
					"id" : "obj-157",
					"maxclass" : "newobj",
					"numinlets" : 2,
					"numoutlets" : 2,
					"outlettype" : [ "", "" ],
					"patching_rect" : [ 582.829999999999927, 2488.0, 92.0, 22.0 ],
					"saved_object_attributes" : 					{
						"versionnumber" : 80300
					}
,
					"text" : "bach.primeform"
				}

			}
, 			{
				"box" : 				{
					"id" : "obj-158",
					"maxclass" : "message",
					"numinlets" : 2,
					"numoutlets" : 1,
					"outlettype" : [ "" ],
					"patching_rect" : [ 350.829999999999984, 2177.25, 92.0, 22.0 ],
					"text" : "[trichord [1 2 3]]"
				}

			}
, 			{
				"box" : 				{
					"id" : "obj-159",
					"maxclass" : "newobj",
					"numinlets" : 2,
					"numoutlets" : 1,
					"outlettype" : [ "" ],
					"patching_rect" : [ 275.829999999999984, 2092.0, 143.0, 22.0 ],
					"text" : "bach.repeat 3 @inwrap 1"
				}

			}
, 			{
				"box" : 				{
					"id" : "obj-160",
					"maxclass" : "newobj",
					"numinlets" : 3,
					"numoutlets" : 3,
					"outlettype" : [ "", "", "" ],
					"patching_rect" : [ 275.829999999999984, 2474.0, 169.0, 22.0 ],
					"saved_object_attributes" : 					{
						"versionnumber" : 80300
					}
,
					"text" : "bach.constraints @solutions 0"
				}

			}
, 			{
				"box" : 				{
					"id" : "obj-86",
					"maxclass" : "newobj",
					"numinlets" : 2,
					"numoutlets" : 4,
					"outlettype" : [ "", "", "", "" ],
					"patching_rect" : [ 1054.829999999999927, 936.0, 58.0, 22.0 ],
					"saved_object_attributes" : 					{
						"versionnumber" : 80300
					}
,
					"text" : "bach.sort"
				}

			}
, 			{
				"box" : 				{
					"bwcompatibility" : 80300,
					"defaultnoteslots" : [ "null" ],
					"fontface" : 0,
					"fontname" : "Arial",
					"fontsize" : 12.0,
					"id" : "obj-22",
					"loop" : [ 0.0, 1000.0 ],
					"maxclass" : "bach.roll",
					"numinlets" : 6,
					"numoutlets" : 8,
					"numvoices" : 1,
					"out" : "nnnnnnn",
					"outlettype" : [ "", "", "", "", "", "", "", "bang" ],
					"patching_rect" : [ 14.0, 337.0, 572.0, 114.0 ],
					"pitcheditrange" : [ "null" ],
					"stafflines" : [ 5 ],
					"textcolor" : [ 0.0, 0.0, 0.0, 1.0 ],
					"versionnumber" : 80300,
					"voicenames" : [ "[", "]" ],
					"voicespacing" : [ 0.0, 17.0 ],
					"vzoom" : 100.0,
					"whole_roll_data_0000000000" : [ "roll", "[", "slotinfo", "[", 1, "[", "name", "velocity envelope", "]", "[", "type", "function", "]", "[", "key", 0, "]", "[", "range", "_x_x_x_x_bach_float64_x_x_x_x_", 0, 0, "_x_x_x_x_bach_float64_x_x_x_x_", 0, 1080016896, "]", "[", "slope", "_x_x_x_x_bach_float64_x_x_x_x_", 0, 0, "]", "[", "representation", "]", "[", "grid", "]", "[", "ysnap", "]", "[", "domain", "_x_x_x_x_bach_float64_x_x_x_x_", 0, 0, "_x_x_x_x_bach_float64_x_x_x_x_", 0, 1072693248, "]", "[", "domainslope", "_x_x_x_x_bach_float64_x_x_x_x_", 0, 0, "]", "[", "temporalmode", "relative", "]", "[", "extend", 0, "]", "[", "width", "auto", "]", "[", "height", "auto", "]", "[", "copywhensplit", 0, "]", "[", "access", "readandwrite", "]", "[", "follownotehead", 0, "]", "]", "[", 2, "[", "name", "slot function", "]", "[", "type", "function", "]", "[", "key", 0, "]", "[", "range", "_x_x_x_x_bach_float64_x_x_x_x_", 0, 0, "_x_x_x_x_bach_float64_x_x_x_x_", 0, 1072693248, "]", "[", "slope", "_x_x_x_x_bach_float64_x_x_x_x_", 0, 0, "]", "[", "representation", "]", "[", "grid", "]", "[", "ysnap", "]", "[", "domain", "_x_x_x_x_bach_float64_x_x_x_x_", 0, 0, "_x_x_x_x_bach_float64_x_x_x_x_", 0, 1072693248, "]", "[", "domainslope", "_x_x_x_x_bach_float64_x_x_x_x_", 0, 0, "]", "[", "temporalmode", "relative", "]", "[", "extend", 0, "]", "[", "width", "auto", "]", "[", "height", "auto", "]", "[", "copywhensplit", 0, "]", "[", "access", "readandwrite", "]", "[", "follownotehead", 0, "]", "]", "[", 3, "[", "name", "slot intlist", "]", "[", "type", "intlist", "]", "[", "key", 0, "]", "[", "range", "_x_x_x_x_bach_float64_x_x_x_x_", 0, 0, "_x_x_x_x_bach_float64_x_x_x_x_", 0, 1080016896, "]", "[", "slope", "_x_x_x_x_bach_float64_x_x_x_x_", 0, 0, "]", "[", "representation", "]", "[", "default", "_x_x_x_x_bach_float64_x_x_x_x_", 0, 1078984704, "]", "[", "temporalmode", "none", "]", "[", "extend", 0, "]", "[", "width", "_x_x_x_x_bach_float64_x_x_x_x_", 0, 1079574528, "]", "[", "height", "auto", "]", "[", "copywhensplit", 1, "]", "[", "access", "readandwrite", "]", "[", "follownotehead", 0, "]", "]", "[", 4, "[", "name", "slot floatlist", "]", "[", "type", "floatlist", "]", "[", "key", 0, "]", "[", "range", "_x_x_x_x_bach_float64_x_x_x_x_", 0, 0, "_x_x_x_x_bach_float64_x_x_x_x_", 0, 1072693248, "]", "[", "slope", "_x_x_x_x_bach_float64_x_x_x_x_", 0, 0, "]", "[", "representation", "]", "[", "default", "_x_x_x_x_bach_float64_x_x_x_x_", 0, 0, "]", "[", "temporalmode", "none", "]", "[", "extend", 0, "]", "[", "width", "_x_x_x_x_bach_float64_x_x_x_x_", 0, 1079574528, "]", "[", "height", "auto", "]", "[", "copywhensplit", 1, "]", "[", "access", "readandwrite", "]", "[", "follownotehead", 0, "]", "]", "[", 5, "[", "name", "slot int", "]", "[", "type", "int", "]", "[", "key", 0, "]", "[", "range", "_x_x_x_x_bach_float64_x_x_x_x_", 0, 0, "_x_x_x_x_bach_float64_x_x_x_x_", 0, 1080016896, "]", "[", "slope", "_x_x_x_x_bach_float64_x_x_x_x_", 0, 0, "]", "[", "representation", "]", "[", "default", "_x_x_x_x_bach_float64_x_x_x_x_", 0, 1078984704, "]", "[", "temporalmode", "none", "]", "[", "extend", 0, "]", "[", "width", "_x_x_x_x_bach_float64_x_x_x_x_", 0, 1079574528, "]", "[", "height", "auto", "]", "[", "copywhensplit", 1, "]", "[", "access", "readandwrite", "]", "[", "follownotehead", 0, "]", "]", "[", 6, "[", "name", "slot float", "]", "[", "type", "float", "]", "[", "key", 0, "]", "[", "range", "_x_x_x_x_bach_float64_x_x_x_x_", 0, 0, "_x_x_x_x_bach_float64_x_x_x_x_", 0, 1072693248, "]", "[", "slope", "_x_x_x_x_bach_float64_x_x_x_x_", 0, 0, "]", "[", "representation", "]", "[", "default", "_x_x_x_x_bach_float64_x_x_x_x_", 0, 0, "]", "[", "temporalmode", "none", "]", "[", "extend", 0, "]", "[", "width", "_x_x_x_x_bach_float64_x_x_x_x_", 0, 1079574528, "]", "[", "height", "auto", "]", "[", "copywhensplit", 1, "]", "[", "access", "readandwrite", "]", "[", "follownotehead", 0, "]", "]", "[", 7, "[", "name", "slot text", "]", "[", "type", "text", "]", "[", "key", 0, "]", "[", "temporalmode", "none", "]", "[", "extend", 0, "]", "[", "width", "_x_x_x_x_bach_float64_x_x_x_x_", 0, 1079574528, "]", "[", "height", "auto", "]", "[", "copywhensplit", 0, "]", "[", "access", "readandwrite", "]", "[", "follownotehead", 0, "]", "]", "[", 8, "[", "name", "slot filelist", "]", "[", "type", "filelist", "]", "[", "key", 0, "]", "[", "temporalmode", "none", "]", "[", "extend", 0, "]", "[", "width", "_x_x_x_x_bach_float64_x_x_x_x_", 0, 1080213504, "]", "[", "height", "auto", "]", "[", "copywhensplit", 1, "]", "[", "access", "readandwrite", "]", "[", "follownotehead", 0, "]", "]", "[", 9, "[", "name", "slot spat", "]", "[", "type", "spat", "]", "[", "key", 0, "]", "[", "range", "_x_x_x_x_bach_float64_x_x_x_x_", 0, 0, "_x_x_x_x_bach_float64_x_x_x_x_", 0, 1076101120, "]", "[", "slope", "_x_x_x_x_bach_float64_x_x_x_x_", 0, 0, "]", "[", "representation", "]", "[", "temporalmode", "relative", "]", "[", "extend", 0, "]", "[", "width", "auto", "]", "[", "height", "auto", "]", "[", "copywhensplit", 0, "]", "[", "access", "readandwrite", "]", "[", "follownotehead", 0, "]", "]", "[", 10, "[", "name", "slot llll", "]", "[", "type", "llll", "]", "[", "key", 0, "]", "[", "temporalmode", "none", "]", "[", "extend", 0, "]", "[", "width", "_x_x_x_x_bach_float64_x_x_x_x_", 0, 1079574528, "]", "[", "height", "auto", "]", "[", "copywhensplit", 0, "]", "[", "access", "readandwrite", "]", "[", "follownotehead", 0, "]", "]", "[", 11, "[", "name", "slot 11", "]", "[", "type", "none", "]", "[", "key", 0, "]", "[", "temporalmode", "none", "]", "[", "extend", 0, "]", "[", "width", "_x_x_x_x_bach_float64_x_x_x_x_", 0, 1079574528, "]", "[", "height", "auto", "]", "[", "copywhensplit", 1, "]", "[", "access", "readandwrite", "]", "[", "follownotehead", 0, "]", "]", "[", 12, "[", "name", "slot 12", "]", "[", "type", "none", "]", "[", "key", 0, "]", "[", "temporalmode", "none", "]", "[", "extend", 0, "]", "[", "width", "_x_x_x_x_bach_float64_x_x_x_x_", 0, 1079574528, "]", "[", "height", "auto", "]", "[", "copywhensplit", 1, "]", "[", "access", "readandwrite", "]", "[", "follownotehead", 0, "]", "]", "[", 13, "[", "name", "slot 13", "]", "[", "type", "none", "]", "[", "key", 0, "]", "[", "temporalmode", "none", "]", "[", "extend", 0, "]", "[", "width", "_x_x_x_x_bach_float64_x_x_x_x_", 0, 1079574528, "]", "[", "height", "auto", "]", "[", "copywhensplit", 1, "]", "[", "access", "readandwrite", "]", "[", "follownotehead", 0, "]", "]", "[", 14, "[", "name", "slot 14", "]", "[", "type", "none", "]", "[", "key", 0, "]", "[", "temporalmode", "none", "]", "[", "extend", 0, "]", "[", "width", "_x_x_x_x_bach_float64_x_x_x_x_", 0, 1079574528, "]", "[", "height", "auto", "]", "[", "copywhensplit", 1, "]", "[", "access", "readandwrite", "]", "[", "follownotehead", 0, "]", "]", "[", 15, "[", "name", "slot 15", "]", "[", "type", "none", "]", "[", "key", 0, "]", "[", "temporalmode", "none", "]", "[", "extend", 0, "]", "[", "width", "_x_x_x_x_bach_float64_x_x_x_x_", 0, 1079574528, "]", "[", "height", "auto", "]", "[", "copywhensplit", 1, "]", "[", "access", "readandwrite", "]", "[", "follownotehead", 0, "]", "]", "[", 16, "[", "name", "slot 16", "]", "[", "type", "none", "]", "[", "key", 0, "]", "[", "temporalmode", "none", "]", "[", "extend", 0, "]", "[", "width", "_x_x_x_x_bach_float64_x_x_x_x_", 0, 1079574528, "]", "[", "height", "auto", "]", "[", "copywhensplit", 1, "]", "[", "access", "readandwrite", "]", "[", "follownotehead", 0, "]", "]", "[", 17, "[", "name", "slot 17", "]", "[", "type", "none", "]", "[", "key", 0, "]", "[", "temporalmode", "none", "]", "[", "extend", 0, "]", "[", "width", "_x_x_x_x_bach_float64_x_x_x_x_", 0, 1079574528, "]", "[", "height", "auto", "]", "[", "copywhensplit", 1, "]", "[", "access", "readandwrite", "]", "[", "follownotehead", 0, "]", "]", "[", 18, "[", "name", "slot 18", "]", "[", "type", "none", "]", "[", "key", 0, "]", "[", "temporalmode", "none", "]", "[", "extend", 0, "]", "[", "width", "_x_x_x_x_bach_float64_x_x_x_x_", 0, 1079574528, "]", "[", "height", "auto", "]", "[", "copywhensplit", 1, "]", "[", "access", "readandwrite", "]", "[", "follownotehead", 0, "]", "]", "[", 19, "[", "name", "slot 19", "]", "[", "type", "none", "]", "[", "key", 0, "]", "[", "temporalmode", "none", "]", "[", "extend", 0, "]", "[", "width", "_x_x_x_x_bach_float64_x_x_x_x_", 0, 1079574528, "]", "[", "height", "auto", "]", "[", "copywhensplit", 1, "]", "[", "access", "readandwrite", "]", "[", "follownotehead", 0, "]", "]", "[", 20, "[", "name", "dynamics", "]", "[", "type", "dynamics", "]", "[", "key", "d", "]", "[", "temporalmode", "none", "]", "[", "extend", 0, "]", "[", "width", "_x_x_x_x_bach_float64_x_x_x_x_", 0, 1079738368, "]", "[", "height", "auto", "]", "[", "copywhensplit", 0, "]", "[", "access", "readandwrite", "]", "[", "follownotehead", 0, "]", "]", "[", 21, "[", "name", "lyrics", "]", "[", "type", "text", "]", "[", "key", "l", "]", "[", "temporalmode", "none", "]", "[", "extend", 0, "]", "[", "width", "_x_x_x_x_bach_float64_x_x_x_x_", 0, 1079574528, "]", "[", "height", "auto", "]", "[", "copywhensplit", 0, "]", "[", "access", "readandwrite", "]", "[", "follownotehead", 0, "]", "]", "[", 22, "[", "name", "articulations", "]", "[", "type", "articulations", "]", "[", "key", "a", "]", "[", "temporalmode", "none", "]", "[", "extend", 0, "]", "[", "width", "_x_x_x_x_bach_float64_x_x_x_x_", 0, 1079738368, "]", "[", "height", "auto", "]", "[", "copywhensplit", 1, "]", "[", "access", "readandwrite", "]", "[", "follownotehead", 0, "]", "]", "[", 23, "[", "name", "notehead", "]", "[", "type", "notehead", "]", "[", "key", "h", "]", "[", "temporalmode", "none", "]", "[", "extend", 0, "]", "[", "width", "_x_x_x_x_bach_float64_x_x_x_x_", 0, 1079738368, "]", "[", "height", "auto", "]", "[", "copywhensplit", 1, "]", "[", "access", "readandwrite", "]", "[", "follownotehead", 0, "]", "]", "[", 24, "[", "name", "annotation", "]", "[", "type", "text", "]", "[", "key", "t", "]", "[", "temporalmode", "none", "]", "[", "extend", 0, "]", "[", "width", "_x_x_x_x_bach_float64_x_x_x_x_", 0, 1079574528, "]", "[", "height", "auto", "]", "[", "copywhensplit", 1, "]", "[", "access", "readandwrite", "]", "[", "follownotehead", 0, "]", "]", "[", 25, "[", "name", "slot 25", "]", "[", "type", "none", "]", "[", "key", 0, "]", "[", "temporalmode", "none", "]", "[", "extend", 0, "]", "[", "width", "_x_x_x_x_bach_float64_x_x_x_x_", 0, 1079574528, "]", "[", "height", "auto", "]", "[", "copywhensplit", 1, "]", "[", "access", "readandwrite", "]", "[", "follownotehead", 0, "]", "]", "[", 26, "[", "name", "slot 26", "]", "[", "type", "none", "]", "[", "key", 0, "]", "[", "temporalmode", "none", "]", "[", "extend", 0, "]", "[", "width", "_x_x_x_x_bach_float64_x_x_x_x_", 0, 1079574528, "]", "[", "height", "auto", "]", "[", "copywhensplit", 1, "]", "[", "access", "readandwrite", "]", "[", "follownotehead", 0, "]", "]", "[", 27, "[", "name", "slot 27", "]", "[", "type", "none", "]", "[", "key", 0, "]", "[", "temporalmode", "none", "]", "[", "extend", 0, "]", "[", "width", "_x_x_x_x_bach_float64_x_x_x_x_", 0, 1079574528, "]", "[", "height", "auto", "]", "[", "copywhensplit", 1, "]", "[", "access", "readandwrite", "]", "[", "follownotehead", 0, "]", "]", "[", 28, "[", "name", "slot 28", "]", "[", "type", "none", "]", "[", "key", 0, "]", "[", "temporalmode", "none", "]", "[", "extend", 0, "]", "[", "width", "_x_x_x_x_bach_float64_x_x_x_x_", 0, 1079574528, "]", "[", "height", "auto", "]", "[", "copywhensplit", 1, "]", "[", "access", "readandwrite", "]", "[", "follownotehead", 0, "]", "]", "[", 29, "[", "name", "slot 29", "]", "[", "type", "none", "]", "[", "key", 0, "]", "[", "temporalmode", "none", "]", "[", "extend", 0, "]", "[", "width", "_x_x_x_x_bach_float64_x_x_x_x_", 0, 1079574528, "]", "[", "height", "auto", "]", "[", "copywhensplit", 1, "]", "[", "access", "readandwrite", "]", "[", "follownotehead", 0, "]", "]", "[", 30, "[", "name", "slot 30", "]", "[", "type", "none", "]", "[", "key", 0, "]", "[", "temporalmode", "none", "]", "[", "extend", 0, "]", "[", "width", "_x_x_x_x_bach_float64_x_x_x_x_", 0, 1079574528, "]", "[", "height", "auto", "]", "[", "copywhensplit", 1, "]", "[", "access", "readandwrite", "]", "[", "follownotehead", 0, "]", "]", "]", "[", "commands", "[", 1, "[", "name", "command", "]", "[", "note", "note", "]", "[", "chord", "chord", "]", "[", "rest", "rest", "]", "[", "marker", "marker", "]", "[", "start", "none", "]", "[", "end", "none", "]", "[", "key", 0, "]", "]", "[", 2, "[", "name", "command", "]", "[", "note", "note", "]", "[", "chord", "chord", "]", "[", "rest", "rest", "]", "[", "marker", "marker", "]", "[", "start", "none", "]", "[", "end", "none", "]", "[", "key", 0, "]", "]", "[", 3, "[", "name", "command", "]", "[", "note", "note", "]", "[", "chord", "chord", "]", "[", "rest", "rest", "]", "[", "marker", "marker", "]", "[", "start", "none", "]", "[", "end", "none", "]", "[", "key", 0, "]", "]", "[", 4, "[", "name", "command", "]", "[", "note", "note", "]", "[", "chord", "chord", "]", "[", "rest", "rest", "]", "[", "marker", "marker", "]", "[", "start", "none", "]", "[", "end", "none", "]", "[", "key", 0, "]", "]", "[", 5, "[", "name", "command", "]", "[", "note", "note", "]", "[", "chord", "chord", "]", "[", "rest", "rest", "]", "[", "marker", "marker", "]", "[", "start", "none", "]", "[", "end", "none", "]", "[", "key", 0, "]", "]", "]", "[", "groups", "]", "[", "markers", "]", "[", "midichannels", 1, "]", "[", "articulationinfo", "]", "[", "noteheadinfo", "]", "[", "[", "_x_x_x_x_bach_float64_x_x_x_x_", 0, 0, "[", "_x_x_x_x_bach_float64_x_x_x_x_", 0, 1085456384, "_x_x_x_x_bach_float64_x_x_x_x_", 0, 1081032704, 100, 0, "]", "[", "_x_x_x_x_bach_float64_x_x_x_x_", 0, 1085635584, "_x_x_x_x_bach_float64_x_x_x_x_", 0, 1081032704, 100, 0, "]", "[", "_x_x_x_x_bach_float64_x_x_x_x_", 0, 1085763584, "_x_x_x_x_bach_float64_x_x_x_x_", 0, 1081032704, 100, 0, "]", "[", "_x_x_x_x_bach_float64_x_x_x_x_", 0, 1085865984, "_x_x_x_x_bach_float64_x_x_x_x_", 0, 1081032704, 100, 0, "]", "[", "_x_x_x_x_bach_float64_x_x_x_x_", 0, 1085942784, "_x_x_x_x_bach_float64_x_x_x_x_", 0, 1081032704, 100, 0, "]", "[", "_x_x_x_x_bach_float64_x_x_x_x_", 0, 1086045184, "_x_x_x_x_bach_float64_x_x_x_x_", 0, 1081032704, 100, 0, "]", 0, "]", "[", "_x_x_x_x_bach_float64_x_x_x_x_", 0, 1081032704, "[", "_x_x_x_x_bach_float64_x_x_x_x_", 0, 1085558784, "_x_x_x_x_bach_float64_x_x_x_x_", 0, 1081032704, 100, 0, "]", "[", "_x_x_x_x_bach_float64_x_x_x_x_", 0, 1085737984, "_x_x_x_x_bach_float64_x_x_x_x_", 0, 1081032704, 100, 0, "]", "[", "_x_x_x_x_bach_float64_x_x_x_x_", 0, 1085865984, "_x_x_x_x_bach_float64_x_x_x_x_", 0, 1081032704, 100, 0, "]", "[", "_x_x_x_x_bach_float64_x_x_x_x_", 0, 1085968384, "_x_x_x_x_bach_float64_x_x_x_x_", 0, 1081032704, 100, 0, "]", "[", "_x_x_x_x_bach_float64_x_x_x_x_", 0, 1086045184, "_x_x_x_x_bach_float64_x_x_x_x_", 0, 1081032704, 100, 0, "]", "[", "_x_x_x_x_bach_float64_x_x_x_x_", 0, 1086147584, "_x_x_x_x_bach_float64_x_x_x_x_", 0, 1081032704, 100, 0, "]", 0, "]", "[", "_x_x_x_x_bach_float64_x_x_x_x_", 0, 1082081280, "[", "_x_x_x_x_bach_float64_x_x_x_x_", 0, 1085635584, "_x_x_x_x_bach_float64_x_x_x_x_", 0, 1081032704, 100, 0, "]", "[", "_x_x_x_x_bach_float64_x_x_x_x_", 0, 1085814784, "_x_x_x_x_bach_float64_x_x_x_x_", 0, 1081032704, 100, 0, "]", "[", "_x_x_x_x_bach_float64_x_x_x_x_", 0, 1085942784, "_x_x_x_x_bach_float64_x_x_x_x_", 0, 1081032704, 100, 0, "]", "[", "_x_x_x_x_bach_float64_x_x_x_x_", 0, 1086045184, "_x_x_x_x_bach_float64_x_x_x_x_", 0, 1081032704, 100, 0, "]", "[", "_x_x_x_x_bach_float64_x_x_x_x_", 0, 1086121984, "_x_x_x_x_bach_float64_x_x_x_x_", 0, 1081032704, 100, 0, "]", "[", "_x_x_x_x_bach_float64_x_x_x_x_", 0, 1086224384, "_x_x_x_x_bach_float64_x_x_x_x_", 0, 1081032704, 100, 0, "]", 0, "]", "[", "_x_x_x_x_bach_float64_x_x_x_x_", 0, 1082617856, "[", "_x_x_x_x_bach_float64_x_x_x_x_", 0, 1085686784, "_x_x_x_x_bach_float64_x_x_x_x_", 0, 1081032704, 100, 0, "]", "[", "_x_x_x_x_bach_float64_x_x_x_x_", 0, 1085865984, "_x_x_x_x_bach_float64_x_x_x_x_", 0, 1081032704, 100, 0, "]", "[", "_x_x_x_x_bach_float64_x_x_x_x_", 0, 1085993984, "_x_x_x_x_bach_float64_x_x_x_x_", 0, 1081032704, 100, 0, "]", "[", "_x_x_x_x_bach_float64_x_x_x_x_", 0, 1086096384, "_x_x_x_x_bach_float64_x_x_x_x_", 0, 1081032704, 100, 0, "]", "[", "_x_x_x_x_bach_float64_x_x_x_x_", 0, 1086173184, "_x_x_x_x_bach_float64_x_x_x_x_", 0, 1081032704, 100, 0, "]", "[", "_x_x_x_x_bach_float64_x_x_x_x_", 0, 1086275584, "_x_x_x_x_bach_float64_x_x_x_x_", 0, 1081032704, 100, 0, "]", 0, "]", "[", "_x_x_x_x_bach_float64_x_x_x_x_", 0, 1083129856, "[", "_x_x_x_x_bach_float64_x_x_x_x_", 0, 1085635584, "_x_x_x_x_bach_float64_x_x_x_x_", 0, 1081032704, 100, 0, "]", "[", "_x_x_x_x_bach_float64_x_x_x_x_", 0, 1085814784, "_x_x_x_x_bach_float64_x_x_x_x_", 0, 1081032704, 100, 0, "]", "[", "_x_x_x_x_bach_float64_x_x_x_x_", 0, 1085942784, "_x_x_x_x_bach_float64_x_x_x_x_", 0, 1081032704, 100, 0, "]", "[", "_x_x_x_x_bach_float64_x_x_x_x_", 0, 1086045184, "_x_x_x_x_bach_float64_x_x_x_x_", 0, 1081032704, 100, 0, "]", "[", "_x_x_x_x_bach_float64_x_x_x_x_", 0, 1086121984, "_x_x_x_x_bach_float64_x_x_x_x_", 0, 1081032704, 100, 0, "]", "[", "_x_x_x_x_bach_float64_x_x_x_x_", 0, 1086224384, "_x_x_x_x_bach_float64_x_x_x_x_", 0, 1081032704, 100, 0, "]", 0, "]", "[", "_x_x_x_x_bach_float64_x_x_x_x_", 0, 1083410432, "[", "_x_x_x_x_bach_float64_x_x_x_x_", 0, 1085584384, "_x_x_x_x_bach_float64_x_x_x_x_", 0, 1081032704, 100, 0, "]", "[", "_x_x_x_x_bach_float64_x_x_x_x_", 0, 1085763584, "_x_x_x_x_bach_float64_x_x_x_x_", 0, 1081032704, 100, 0, "]", "[", "_x_x_x_x_bach_float64_x_x_x_x_", 0, 1085891584, "_x_x_x_x_bach_float64_x_x_x_x_", 0, 1081032704, 100, 0, "]", "[", "_x_x_x_x_bach_float64_x_x_x_x_", 0, 1085993984, "_x_x_x_x_bach_float64_x_x_x_x_", 0, 1081032704, 100, 0, "]", "[", "_x_x_x_x_bach_float64_x_x_x_x_", 0, 1086070784, "_x_x_x_x_bach_float64_x_x_x_x_", 0, 1081032704, 100, 0, "]", "[", "_x_x_x_x_bach_float64_x_x_x_x_", 0, 1086173184, "_x_x_x_x_bach_float64_x_x_x_x_", 0, 1081032704, 100, 0, "]", 0, "]", "[", "_x_x_x_x_bach_float64_x_x_x_x_", 0, 1083666432, "[", "_x_x_x_x_bach_float64_x_x_x_x_", 0, 1085558784, "_x_x_x_x_bach_float64_x_x_x_x_", 0, 1081032704, 100, 0, "]", "[", "_x_x_x_x_bach_float64_x_x_x_x_", 0, 1085737984, "_x_x_x_x_bach_float64_x_x_x_x_", 0, 1081032704, 100, 0, "]", "[", "_x_x_x_x_bach_float64_x_x_x_x_", 0, 1085865984, "_x_x_x_x_bach_float64_x_x_x_x_", 0, 1081032704, 100, 0, "]", "[", "_x_x_x_x_bach_float64_x_x_x_x_", 0, 1085968384, "_x_x_x_x_bach_float64_x_x_x_x_", 0, 1081032704, 100, 0, "]", "[", "_x_x_x_x_bach_float64_x_x_x_x_", 0, 1086045184, "_x_x_x_x_bach_float64_x_x_x_x_", 0, 1081032704, 100, 0, "]", "[", "_x_x_x_x_bach_float64_x_x_x_x_", 0, 1086147584, "_x_x_x_x_bach_float64_x_x_x_x_", 0, 1081032704, 100, 0, "]", 0, "]", "[", "_x_x_x_x_bach_float64_x_x_x_x_", 0, 1083922432, "[", "_x_x_x_x_bach_float64_x_x_x_x_", 0, 1085507584, "_x_x_x_x_bach_float64_x_x_x_x_", 0, 1081032704, 100, 0, "]", "[", "_x_x_x_x_bach_float64_x_x_x_x_", 0, 1085686784, "_x_x_x_x_bach_float64_x_x_x_x_", 0, 1081032704, 100, 0, "]", "[", "_x_x_x_x_bach_float64_x_x_x_x_", 0, 1085814784, "_x_x_x_x_bach_float64_x_x_x_x_", 0, 1081032704, 100, 0, "]", "[", "_x_x_x_x_bach_float64_x_x_x_x_", 0, 1085917184, "_x_x_x_x_bach_float64_x_x_x_x_", 0, 1081032704, 100, 0, "]", "[", "_x_x_x_x_bach_float64_x_x_x_x_", 0, 1085993984, "_x_x_x_x_bach_float64_x_x_x_x_", 0, 1081032704, 100, 0, "]", "[", "_x_x_x_x_bach_float64_x_x_x_x_", 0, 1086096384, "_x_x_x_x_bach_float64_x_x_x_x_", 0, 1081032704, 100, 0, "]", 0, "]", "[", "_x_x_x_x_bach_float64_x_x_x_x_", 0, 1084178432, "[", "_x_x_x_x_bach_float64_x_x_x_x_", 0, 1085456384, "_x_x_x_x_bach_float64_x_x_x_x_", 0, 1081032704, 100, 0, "]", "[", "_x_x_x_x_bach_float64_x_x_x_x_", 0, 1085635584, "_x_x_x_x_bach_float64_x_x_x_x_", 0, 1081032704, 100, 0, "]", "[", "_x_x_x_x_bach_float64_x_x_x_x_", 0, 1085763584, "_x_x_x_x_bach_float64_x_x_x_x_", 0, 1081032704, 100, 0, "]", "[", "_x_x_x_x_bach_float64_x_x_x_x_", 0, 1085865984, "_x_x_x_x_bach_float64_x_x_x_x_", 0, 1081032704, 100, 0, "]", "[", "_x_x_x_x_bach_float64_x_x_x_x_", 0, 1085942784, "_x_x_x_x_bach_float64_x_x_x_x_", 0, 1081032704, 100, 0, "]", "[", "_x_x_x_x_bach_float64_x_x_x_x_", 0, 1086045184, "_x_x_x_x_bach_float64_x_x_x_x_", 0, 1081032704, 100, 0, "]", 0, "]", 0, "]" ],
					"whole_roll_data_count" : [ 1 ]
				}

			}
, 			{
				"box" : 				{
					"id" : "obj-124",
					"maxclass" : "newobj",
					"numinlets" : 3,
					"numoutlets" : 2,
					"outlettype" : [ "", "int" ],
					"patching_rect" : [ 489.285714285714278, 466.0, 95.0, 22.0 ],
					"text" : "bach.ezmidiplay"
				}

			}
, 			{
				"box" : 				{
					"id" : "obj-123",
					"maxclass" : "message",
					"numinlets" : 2,
					"numoutlets" : 1,
					"outlettype" : [ "" ],
					"patching_rect" : [ 550.128571428571149, 1222.875, 35.0, 22.0 ],
					"text" : "[120]"
				}

			}
, 			{
				"box" : 				{
					"id" : "obj-119",
					"maxclass" : "newobj",
					"numinlets" : 1,
					"numoutlets" : 0,
					"patching_rect" : [ 571.128571428571377, 723.0, 73.0, 22.0 ],
					"text" : "s trigger-arp"
				}

			}
, 			{
				"box" : 				{
					"id" : "obj-118",
					"maxclass" : "newobj",
					"numinlets" : 0,
					"numoutlets" : 1,
					"outlettype" : [ "" ],
					"patching_rect" : [ 14.0, 261.0, 71.0, 22.0 ],
					"text" : "r trigger-arp"
				}

			}
, 			{
				"box" : 				{
					"id" : "obj-117",
					"maxclass" : "newobj",
					"numinlets" : 1,
					"numoutlets" : 0,
					"patching_rect" : [ 956.428571428571331, 981.0, 73.0, 22.0 ],
					"text" : "s trigger-arp"
				}

			}
, 			{
				"box" : 				{
					"fontface" : 1,
					"id" : "obj-114",
					"maxclass" : "comment",
					"numinlets" : 1,
					"numoutlets" : 0,
					"patching_rect" : [ 775.428571428571331, 832.5, 107.0, 20.0 ],
					"text" : "arpeggio contour"
				}

			}
, 			{
				"box" : 				{
					"id" : "obj-110",
					"maxclass" : "newobj",
					"numinlets" : 1,
					"numoutlets" : 1,
					"outlettype" : [ "" ],
					"patching_rect" : [ 648.095238095238074, 723.0, 83.0, 22.0 ],
					"text" : "expr 1./($i1-1)"
				}

			}
, 			{
				"box" : 				{
					"fontface" : 1,
					"id" : "obj-109",
					"maxclass" : "comment",
					"numinlets" : 1,
					"numoutlets" : 0,
					"patching_rect" : [ 559.128571428571377, 651.0, 85.0, 20.0 ],
					"text" : "arpeggio size"
				}

			}
, 			{
				"box" : 				{
					"id" : "obj-108",
					"maxclass" : "newobj",
					"numinlets" : 1,
					"numoutlets" : 1,
					"outlettype" : [ "" ],
					"patching_rect" : [ 648.095238095238074, 619.0, 70.0, 22.0 ],
					"text" : "loadmess 6"
				}

			}
, 			{
				"box" : 				{
					"id" : "obj-107",
					"maxclass" : "number",
					"maximum" : 16,
					"minimum" : 1,
					"numinlets" : 1,
					"numoutlets" : 2,
					"outlettype" : [ "", "bang" ],
					"parameter_enable" : 0,
					"patching_rect" : [ 648.095238095238074, 650.0, 50.0, 22.0 ]
				}

			}
, 			{
				"box" : 				{
					"id" : "obj-103",
					"maxclass" : "newobj",
					"numinlets" : 3,
					"numoutlets" : 2,
					"outlettype" : [ "", "int" ],
					"patching_rect" : [ 712.000000000000227, 1496.0, 95.0, 22.0 ],
					"text" : "bach.ezmidiplay"
				}

			}
, 			{
				"box" : 				{
					"id" : "obj-102",
					"maxclass" : "newobj",
					"numinlets" : 1,
					"numoutlets" : 1,
					"outlettype" : [ "" ],
					"patching_rect" : [ 172.428571428571416, 924.75, 74.0, 22.0 ],
					"saved_object_attributes" : 					{
						"versionnumber" : 80300
					}
,
					"text" : "bach.wrap 1"
				}

			}
, 			{
				"box" : 				{
					"id" : "obj-101",
					"maxclass" : "message",
					"numinlets" : 2,
					"numoutlets" : 1,
					"outlettype" : [ "" ],
					"patching_rect" : [ 298.328571428571422, 1222.875, 45.0, 22.0 ],
					"text" : "[0 120]"
				}

			}
, 			{
				"box" : 				{
					"id" : "obj-99",
					"maxclass" : "newobj",
					"numinlets" : 1,
					"numoutlets" : 1,
					"outlettype" : [ "" ],
					"patching_rect" : [ 172.428571428571416, 888.5, 54.0, 22.0 ],
					"saved_object_attributes" : 					{
						"versionnumber" : 80300
					}
,
					"text" : "bach.flat"
				}

			}
, 			{
				"box" : 				{
					"id" : "obj-97",
					"maxclass" : "newobj",
					"numinlets" : 1,
					"numoutlets" : 4,
					"outlettype" : [ "bang", "bang", "", "bang" ],
					"patching_rect" : [ 172.428571428571416, 1177.75, 396.699999999999818, 22.0 ],
					"text" : "t b b l b"
				}

			}
, 			{
				"box" : 				{
					"id" : "obj-96",
					"maxclass" : "newobj",
					"numinlets" : 2,
					"numoutlets" : 2,
					"outlettype" : [ "", "" ],
					"patching_rect" : [ 172.428571428571416, 729.0, 234.0, 22.0 ],
					"saved_object_attributes" : 					{
						"versionnumber" : 80300
					}
,
					"text" : "bach.mapelem @maxdepth -2 @unwrap 1"
				}

			}
, 			{
				"box" : 				{
					"id" : "obj-91",
					"maxclass" : "newobj",
					"numinlets" : 2,
					"numoutlets" : 2,
					"outlettype" : [ "", "" ],
					"patching_rect" : [ 539.428571428571331, 1102.75, 436.0, 22.0 ],
					"saved_object_attributes" : 					{
						"versionnumber" : 80300
					}
,
					"text" : "bach.mapelem"
				}

			}
, 			{
				"box" : 				{
					"id" : "obj-89",
					"maxclass" : "newobj",
					"numinlets" : 2,
					"numoutlets" : 1,
					"outlettype" : [ "" ],
					"patching_rect" : [ 539.428571428571331, 1025.5, 69.0, 22.0 ],
					"text" : "bach.round"
				}

			}
, 			{
				"box" : 				{
					"id" : "obj-70",
					"maxclass" : "newobj",
					"numinlets" : 2,
					"numoutlets" : 1,
					"outlettype" : [ "" ],
					"patching_rect" : [ 1000.829999999999927, 1102.75, 73.0, 22.0 ],
					"text" : "bach.lookup"
				}

			}
, 			{
				"box" : 				{
					"id" : "obj-67",
					"maxclass" : "newobj",
					"numinlets" : 5,
					"numoutlets" : 1,
					"outlettype" : [ "" ],
					"patching_rect" : [ 539.428571428571331, 981.0, 216.0, 22.0 ],
					"text" : "bach.scale 0. 1. 1. 10."
				}

			}
, 			{
				"box" : 				{
					"id" : "obj-57",
					"maxclass" : "newobj",
					"numinlets" : 2,
					"numoutlets" : 2,
					"outlettype" : [ "", "" ],
					"patching_rect" : [ 539.428571428571331, 917.0, 139.0, 22.0 ],
					"saved_object_attributes" : 					{
						"versionnumber" : 80300
					}
,
					"text" : "bach.mapelem @out nm"
				}

			}
, 			{
				"box" : 				{
					"id" : "obj-50",
					"maxclass" : "newobj",
					"numinlets" : 1,
					"numoutlets" : 2,
					"outlettype" : [ "bang", "int" ],
					"patching_rect" : [ 539.428571428571331, 593.0, 216.0, 22.0 ],
					"text" : "t b i"
				}

			}
, 			{
				"box" : 				{
					"id" : "obj-49",
					"maxclass" : "newobj",
					"numinlets" : 4,
					"numoutlets" : 1,
					"outlettype" : [ "" ],
					"patching_rect" : [ 539.428571428571331, 771.5, 182.0, 22.0 ],
					"saved_object_attributes" : 					{
						"versionnumber" : 80300
					}
,
					"text" : "bach.arithmser 0. 1. 0.1"
				}

			}
, 			{
				"box" : 				{
					"id" : "obj-48",
					"linecount" : 2,
					"maxclass" : "comment",
					"numinlets" : 1,
					"numoutlets" : 0,
					"patching_rect" : [ 948.428571428571331, 832.5, 81.0, 33.0 ],
					"text" : "(x range: 0-1)\n(y range: 0-1)"
				}

			}
, 			{
				"box" : 				{
					"id" : "obj-35",
					"maxclass" : "newobj",
					"numinlets" : 1,
					"numoutlets" : 1,
					"outlettype" : [ "int" ],
					"patching_rect" : [ 539.428571428571331, 559.0, 71.0, 22.0 ],
					"saved_object_attributes" : 					{
						"versionnumber" : 80300
					}
,
					"text" : "bach.length"
				}

			}
, 			{
				"box" : 				{
					"id" : "obj-33",
					"maxclass" : "newobj",
					"numinlets" : 1,
					"numoutlets" : 2,
					"outlettype" : [ "", "" ],
					"patching_rect" : [ 539.428571428571331, 523.0, 534.401428571428596, 22.0 ],
					"text" : "t l l"
				}

			}
, 			{
				"box" : 				{
					"bwcompatibility" : 80300,
					"clefs" : [ "FFGG" ],
					"defaultnoteslots" : [ "null" ],
					"embed" : 0,
					"fontface" : 0,
					"fontname" : "Arial",
					"fontsize" : 12.0,
					"id" : "obj-30",
					"loop" : [ 0.0, 1000.0 ],
					"maxclass" : "bach.roll",
					"numinlets" : 6,
					"numoutlets" : 8,
					"numvoices" : 1,
					"out" : "nnnnnnn",
					"outlettype" : [ "", "", "", "", "", "", "", "bang" ],
					"patching_rect" : [ 172.428571428571416, 1268.0, 648.500000000000227, 214.0 ],
					"pitcheditrange" : [ "null" ],
					"stafflines" : [ 5 ],
					"textcolor" : [ 0.0, 0.0, 0.0, 1.0 ],
					"tonedivision" : 8,
					"versionnumber" : 80300,
					"voicenames" : [ "[", "]" ],
					"voicespacing" : [ 0.0, 17.0 ],
					"vzoom" : 100.0
				}

			}
, 			{
				"box" : 				{
					"id" : "obj-29",
					"maxclass" : "message",
					"numinlets" : 2,
					"numoutlets" : 1,
					"outlettype" : [ "" ],
					"patching_rect" : [ 14.0, 294.0, 39.0, 22.0 ],
					"text" : "dump"
				}

			}
, 			{
				"box" : 				{
					"addpoints_with_curve" : [ 0.0, 0.0, 0, 0.0, 0.970220364741641, 1.0, 0, 0.35 ],
					"domain" : 1.0,
					"id" : "obj-25",
					"maxclass" : "function",
					"mode" : 1,
					"numinlets" : 1,
					"numoutlets" : 4,
					"outlettype" : [ "float", "", "", "bang" ],
					"parameter_enable" : 0,
					"patching_rect" : [ 775.428571428571331, 869.0, 200.0, 100.0 ]
				}

			}
, 			{
				"box" : 				{
					"bgcolor" : [ 0.917647058823529, 0.917647058823529, 0.917647058823529, 1.0 ],
					"fontface" : 1,
					"fontsize" : 18.0,
					"id" : "obj-3",
					"maxclass" : "comment",
					"numinlets" : 1,
					"numoutlets" : 0,
					"patching_rect" : [ 14.0, 172.0, 206.0, 27.0 ],
					"text" : "Parametric arpeggiator"
				}

			}
, 			{
				"box" : 				{
					"id" : "obj-37",
					"maxclass" : "live.line",
					"numinlets" : 1,
					"numoutlets" : 0,
					"patching_rect" : [ 14.0, 165.0, 1179.099999999999909, 5.0 ]
				}

			}
, 			{
				"box" : 				{
					"angle" : 270.0,
					"bgcolor" : [ 1.0, 0.682352941176471, 0.0, 0.18 ],
					"border" : 3,
					"bordercolor" : [ 1.0, 0.682352941176471, 0.0, 1.0 ],
					"id" : "obj-235",
					"maxclass" : "panel",
					"mode" : 0,
					"numinlets" : 1,
					"numoutlets" : 0,
					"patching_rect" : [ 766.928571428571331, 821.0, 273.901428571428596, 196.0 ],
					"proportion" : 0.5,
					"rounded" : 36
				}

			}
, 			{
				"box" : 				{
					"angle" : 270.0,
					"bgcolor" : [ 0.086274509803922, 0.674509803921569, 0.537254901960784, 0.17 ],
					"border" : 3,
					"bordercolor" : [ 0.086274509803922, 0.674509803921569, 0.537254901960784, 1.0 ],
					"id" : "obj-230",
					"maxclass" : "panel",
					"mode" : 0,
					"numinlets" : 1,
					"numoutlets" : 0,
					"patching_rect" : [ 392.514821428571452, 493.0, 785.315178571428532, 673.0 ],
					"proportion" : 0.5,
					"rounded" : 36
				}

			}
, 			{
				"box" : 				{
					"angle" : 270.0,
					"bgcolor" : [ 0.086274509803922, 0.674509803921569, 0.537254901960784, 0.17 ],
					"border" : 3,
					"bordercolor" : [ 0.086274509803922, 0.674509803921569, 0.537254901960784, 1.0 ],
					"id" : "obj-277",
					"maxclass" : "panel",
					"mode" : 0,
					"numinlets" : 1,
					"numoutlets" : 0,
					"patching_rect" : [ 424.672410714285718, 2304.5, 521.815178571428532, 289.0 ],
					"proportion" : 0.5,
					"rounded" : 36
				}

			}
, 			{
				"box" : 				{
					"angle" : 270.0,
					"bgcolor" : [ 0.086274509803922, 0.674509803921569, 0.537254901960784, 0.17 ],
					"border" : 3,
					"bordercolor" : [ 0.086274509803922, 0.674509803921569, 0.537254901960784, 1.0 ],
					"id" : "obj-287",
					"maxclass" : "panel",
					"mode" : 0,
					"numinlets" : 1,
					"numoutlets" : 0,
					"patching_rect" : [ 696.829999999999927, 2766.5, 115.0, 56.0 ],
					"proportion" : 0.5,
					"rounded" : 36
				}

			}
 ],
		"lines" : [ 			{
				"patchline" : 				{
					"destination" : [ "obj-30", 1 ],
					"midpoints" : [ 307.828571428571422, 1245.0, 307.828571428571422, 1245.0 ],
					"source" : [ "obj-101", 0 ]
				}

			}
, 			{
				"patchline" : 				{
					"destination" : [ "obj-97", 0 ],
					"midpoints" : [ 181.928571428571416, 948.0, 181.928571428571416, 948.0 ],
					"source" : [ "obj-102", 0 ]
				}

			}
, 			{
				"patchline" : 				{
					"destination" : [ "obj-110", 0 ],
					"order" : 0,
					"source" : [ "obj-107", 0 ]
				}

			}
, 			{
				"patchline" : 				{
					"destination" : [ "obj-119", 0 ],
					"order" : 1,
					"source" : [ "obj-107", 0 ]
				}

			}
, 			{
				"patchline" : 				{
					"destination" : [ "obj-107", 0 ],
					"source" : [ "obj-108", 0 ]
				}

			}
, 			{
				"patchline" : 				{
					"destination" : [ "obj-49", 2 ],
					"source" : [ "obj-110", 0 ]
				}

			}
, 			{
				"patchline" : 				{
					"destination" : [ "obj-152", 0 ],
					"source" : [ "obj-112", 0 ]
				}

			}
, 			{
				"patchline" : 				{
					"destination" : [ "obj-98", 0 ],
					"source" : [ "obj-112", 1 ]
				}

			}
, 			{
				"patchline" : 				{
					"destination" : [ "obj-29", 0 ],
					"midpoints" : [ 23.5, 285.0, 23.5, 285.0 ],
					"source" : [ "obj-118", 0 ]
				}

			}
, 			{
				"patchline" : 				{
					"destination" : [ "obj-154", 0 ],
					"source" : [ "obj-120", 0 ]
				}

			}
, 			{
				"patchline" : 				{
					"destination" : [ "obj-30", 3 ],
					"midpoints" : [ 559.628571428571149, 1245.0, 559.628571428571604, 1245.0 ],
					"source" : [ "obj-123", 0 ]
				}

			}
, 			{
				"patchline" : 				{
					"destination" : [ "obj-171", 0 ],
					"source" : [ "obj-126", 0 ]
				}

			}
, 			{
				"patchline" : 				{
					"destination" : [ "obj-139", 1 ],
					"source" : [ "obj-132", 0 ]
				}

			}
, 			{
				"patchline" : 				{
					"destination" : [ "obj-157", 0 ],
					"source" : [ "obj-136", 0 ]
				}

			}
, 			{
				"patchline" : 				{
					"destination" : [ "obj-159", 0 ],
					"source" : [ "obj-137", 0 ]
				}

			}
, 			{
				"patchline" : 				{
					"destination" : [ "obj-158", 0 ],
					"source" : [ "obj-138", 0 ]
				}

			}
, 			{
				"patchline" : 				{
					"destination" : [ "obj-151", 0 ],
					"source" : [ "obj-139", 6 ]
				}

			}
, 			{
				"patchline" : 				{
					"destination" : [ "obj-173", 0 ],
					"source" : [ "obj-140", 0 ]
				}

			}
, 			{
				"patchline" : 				{
					"destination" : [ "obj-147", 1 ],
					"source" : [ "obj-142", 0 ]
				}

			}
, 			{
				"patchline" : 				{
					"destination" : [ "obj-146", 0 ],
					"source" : [ "obj-143", 0 ]
				}

			}
, 			{
				"patchline" : 				{
					"destination" : [ "obj-147", 2 ],
					"source" : [ "obj-144", 0 ]
				}

			}
, 			{
				"patchline" : 				{
					"destination" : [ "obj-173", 0 ],
					"source" : [ "obj-145", 0 ]
				}

			}
, 			{
				"patchline" : 				{
					"destination" : [ "obj-142", 0 ],
					"source" : [ "obj-146", 2 ]
				}

			}
, 			{
				"patchline" : 				{
					"destination" : [ "obj-144", 0 ],
					"source" : [ "obj-146", 3 ]
				}

			}
, 			{
				"patchline" : 				{
					"destination" : [ "obj-147", 0 ],
					"source" : [ "obj-146", 1 ]
				}

			}
, 			{
				"patchline" : 				{
					"destination" : [ "obj-147", 0 ],
					"source" : [ "obj-146", 0 ]
				}

			}
, 			{
				"patchline" : 				{
					"destination" : [ "obj-137", 0 ],
					"source" : [ "obj-147", 2 ]
				}

			}
, 			{
				"patchline" : 				{
					"destination" : [ "obj-141", 0 ],
					"source" : [ "obj-147", 6 ]
				}

			}
, 			{
				"patchline" : 				{
					"destination" : [ "obj-149", 0 ],
					"source" : [ "obj-148", 0 ]
				}

			}
, 			{
				"patchline" : 				{
					"destination" : [ "obj-150", 0 ],
					"source" : [ "obj-148", 1 ]
				}

			}
, 			{
				"patchline" : 				{
					"destination" : [ "obj-153", 0 ],
					"source" : [ "obj-149", 0 ]
				}

			}
, 			{
				"patchline" : 				{
					"destination" : [ "obj-148", 1 ],
					"source" : [ "obj-150", 0 ]
				}

			}
, 			{
				"patchline" : 				{
					"destination" : [ "obj-132", 0 ],
					"source" : [ "obj-152", 1 ]
				}

			}
, 			{
				"patchline" : 				{
					"destination" : [ "obj-139", 0 ],
					"source" : [ "obj-152", 0 ]
				}

			}
, 			{
				"patchline" : 				{
					"destination" : [ "obj-148", 0 ],
					"source" : [ "obj-152", 2 ]
				}

			}
, 			{
				"patchline" : 				{
					"destination" : [ "obj-139", 2 ],
					"source" : [ "obj-153", 0 ]
				}

			}
, 			{
				"patchline" : 				{
					"destination" : [ "obj-171", 0 ],
					"source" : [ "obj-154", 0 ]
				}

			}
, 			{
				"patchline" : 				{
					"destination" : [ "obj-160", 2 ],
					"midpoints" : [ 591.829999999999927, 2581.0, 559.829999999999927, 2581.0, 559.829999999999927, 2470.0, 435.329999999999984, 2470.0 ],
					"source" : [ "obj-155", 0 ]
				}

			}
, 			{
				"patchline" : 				{
					"destination" : [ "obj-136", 0 ],
					"source" : [ "obj-156", 0 ]
				}

			}
, 			{
				"patchline" : 				{
					"destination" : [ "obj-155", 0 ],
					"source" : [ "obj-157", 0 ]
				}

			}
, 			{
				"patchline" : 				{
					"destination" : [ "obj-160", 1 ],
					"source" : [ "obj-158", 0 ]
				}

			}
, 			{
				"patchline" : 				{
					"destination" : [ "obj-160", 0 ],
					"source" : [ "obj-159", 0 ]
				}

			}
, 			{
				"patchline" : 				{
					"destination" : [ "obj-112", 0 ],
					"source" : [ "obj-160", 0 ]
				}

			}
, 			{
				"patchline" : 				{
					"destination" : [ "obj-156", 0 ],
					"midpoints" : [ 435.329999999999984, 2497.0, 454.829999999999927, 2497.0, 454.829999999999927, 2338.0, 592.329999999999927, 2338.0 ],
					"source" : [ "obj-160", 2 ]
				}

			}
, 			{
				"patchline" : 				{
					"destination" : [ "obj-173", 0 ],
					"source" : [ "obj-166", 0 ]
				}

			}
, 			{
				"patchline" : 				{
					"destination" : [ "obj-171", 0 ],
					"source" : [ "obj-170", 0 ]
				}

			}
, 			{
				"patchline" : 				{
					"destination" : [ "obj-155", 1 ],
					"source" : [ "obj-171", 1 ]
				}

			}
, 			{
				"patchline" : 				{
					"destination" : [ "obj-172", 0 ],
					"source" : [ "obj-171", 0 ]
				}

			}
, 			{
				"patchline" : 				{
					"destination" : [ "obj-143", 0 ],
					"source" : [ "obj-173", 0 ]
				}

			}
, 			{
				"patchline" : 				{
					"destination" : [ "obj-173", 0 ],
					"source" : [ "obj-174", 0 ]
				}

			}
, 			{
				"patchline" : 				{
					"destination" : [ "obj-124", 0 ],
					"midpoints" : [ 497.5, 453.0, 498.785714285714278, 453.0 ],
					"source" : [ "obj-22", 6 ]
				}

			}
, 			{
				"patchline" : 				{
					"destination" : [ "obj-96", 0 ],
					"midpoints" : [ 181.5, 723.0, 181.928571428571416, 723.0 ],
					"source" : [ "obj-22", 2 ]
				}

			}
, 			{
				"patchline" : 				{
					"destination" : [ "obj-117", 0 ],
					"source" : [ "obj-25", 3 ]
				}

			}
, 			{
				"patchline" : 				{
					"destination" : [ "obj-57", 1 ],
					"source" : [ "obj-25", 0 ]
				}

			}
, 			{
				"patchline" : 				{
					"destination" : [ "obj-22", 0 ],
					"midpoints" : [ 23.5, 318.0, 23.5, 318.0 ],
					"source" : [ "obj-29", 0 ]
				}

			}
, 			{
				"patchline" : 				{
					"destination" : [ "obj-103", 0 ],
					"midpoints" : [ 721.500000000000227, 1483.0, 721.500000000000227, 1483.0 ],
					"source" : [ "obj-30", 6 ]
				}

			}
, 			{
				"patchline" : 				{
					"destination" : [ "obj-35", 0 ],
					"source" : [ "obj-33", 0 ]
				}

			}
, 			{
				"patchline" : 				{
					"destination" : [ "obj-86", 0 ],
					"source" : [ "obj-33", 1 ]
				}

			}
, 			{
				"patchline" : 				{
					"destination" : [ "obj-50", 0 ],
					"source" : [ "obj-35", 0 ]
				}

			}
, 			{
				"patchline" : 				{
					"destination" : [ "obj-57", 0 ],
					"source" : [ "obj-49", 0 ]
				}

			}
, 			{
				"patchline" : 				{
					"destination" : [ "obj-49", 0 ],
					"source" : [ "obj-50", 0 ]
				}

			}
, 			{
				"patchline" : 				{
					"destination" : [ "obj-67", 4 ],
					"source" : [ "obj-50", 1 ]
				}

			}
, 			{
				"patchline" : 				{
					"destination" : [ "obj-25", 0 ],
					"source" : [ "obj-57", 1 ]
				}

			}
, 			{
				"patchline" : 				{
					"destination" : [ "obj-67", 0 ],
					"source" : [ "obj-57", 0 ]
				}

			}
, 			{
				"patchline" : 				{
					"destination" : [ "obj-89", 0 ],
					"source" : [ "obj-67", 0 ]
				}

			}
, 			{
				"patchline" : 				{
					"destination" : [ "obj-91", 1 ],
					"source" : [ "obj-70", 0 ]
				}

			}
, 			{
				"patchline" : 				{
					"destination" : [ "obj-70", 1 ],
					"source" : [ "obj-86", 0 ]
				}

			}
, 			{
				"patchline" : 				{
					"destination" : [ "obj-91", 0 ],
					"source" : [ "obj-89", 0 ]
				}

			}
, 			{
				"patchline" : 				{
					"destination" : [ "obj-70", 0 ],
					"source" : [ "obj-91", 1 ]
				}

			}
, 			{
				"patchline" : 				{
					"destination" : [ "obj-96", 1 ],
					"midpoints" : [ 548.928571428571331, 1126.0, 415.829999999999927, 1126.0, 415.829999999999927, 724.0, 396.928571428571445, 724.0 ],
					"source" : [ "obj-91", 0 ]
				}

			}
, 			{
				"patchline" : 				{
					"destination" : [ "obj-33", 0 ],
					"midpoints" : [ 396.928571428571445, 754.0, 421.829999999999927, 754.0, 421.829999999999927, 517.0, 548.928571428571331, 517.0 ],
					"source" : [ "obj-96", 1 ]
				}

			}
, 			{
				"patchline" : 				{
					"destination" : [ "obj-99", 0 ],
					"midpoints" : [ 181.928571428571416, 753.0, 181.928571428571416, 753.0 ],
					"source" : [ "obj-96", 0 ]
				}

			}
, 			{
				"patchline" : 				{
					"destination" : [ "obj-101", 0 ],
					"midpoints" : [ 307.828571428571308, 1200.0, 307.828571428571422, 1200.0 ],
					"source" : [ "obj-97", 1 ]
				}

			}
, 			{
				"patchline" : 				{
					"destination" : [ "obj-123", 0 ],
					"midpoints" : [ 559.628571428571263, 1200.0, 559.628571428571149, 1200.0 ],
					"source" : [ "obj-97", 3 ]
				}

			}
, 			{
				"patchline" : 				{
					"destination" : [ "obj-30", 2 ],
					"midpoints" : [ 433.728571428571286, 1200.0, 433.728571428571513, 1200.0 ],
					"source" : [ "obj-97", 2 ]
				}

			}
, 			{
				"patchline" : 				{
					"destination" : [ "obj-30", 0 ],
					"midpoints" : [ 181.928571428571416, 1200.0, 181.928571428571416, 1200.0 ],
					"source" : [ "obj-97", 0 ]
				}

			}
, 			{
				"patchline" : 				{
					"destination" : [ "obj-139", 0 ],
					"midpoints" : [ 853.329999999999927, 2876.0, 285.329999999999984, 2876.0 ],
					"source" : [ "obj-98", 0 ]
				}

			}
, 			{
				"patchline" : 				{
					"destination" : [ "obj-102", 0 ],
					"midpoints" : [ 181.928571428571416, 912.0, 181.928571428571416, 912.0 ],
					"source" : [ "obj-99", 0 ]
				}

			}
 ],
		"dependency_cache" : [ 			{
				"name" : "bach.approx.maxpat",
				"bootpath" : "~/Documents/Max 8/Packages/bach/patchers",
				"patcherrelativepath" : "../../../../../../../Documents/Max 8/Packages/bach/patchers",
				"type" : "JSON",
				"implicit" : 1
			}
, 			{
				"name" : "bach.args.mxo",
				"type" : "iLaX"
			}
, 			{
				"name" : "bach.arithmser.mxo",
				"type" : "iLaX"
			}
, 			{
				"name" : "bach.collect.mxo",
				"type" : "iLaX"
			}
, 			{
				"name" : "bach.constraints.mxo",
				"type" : "iLaX"
			}
, 			{
				"name" : "bach.div.maxpat",
				"bootpath" : "~/Documents/Max 8/Packages/bach/patchers",
				"patcherrelativepath" : "../../../../../../../Documents/Max 8/Packages/bach/patchers",
				"type" : "JSON",
				"implicit" : 1
			}
, 			{
				"name" : "bach.eq.mxo",
				"type" : "iLaX"
			}
, 			{
				"name" : "bach.expr.mxo",
				"type" : "iLaX"
			}
, 			{
				"name" : "bach.ezmidiplay.maxpat",
				"bootpath" : "~/Documents/Max 8/Packages/bach/patchers",
				"patcherrelativepath" : "../../../../../../../Documents/Max 8/Packages/bach/patchers",
				"type" : "JSON",
				"implicit" : 1
			}
, 			{
				"name" : "bach.filter.maxpat",
				"bootpath" : "~/Documents/Max 8/Packages/bach/patchers",
				"patcherrelativepath" : "../../../../../../../Documents/Max 8/Packages/bach/patchers",
				"type" : "JSON",
				"implicit" : 1
			}
, 			{
				"name" : "bach.filternull.maxpat",
				"bootpath" : "~/Documents/Max 8/Packages/bach/patchers",
				"patcherrelativepath" : "../../../../../../../Documents/Max 8/Packages/bach/patchers",
				"type" : "JSON",
				"implicit" : 1
			}
, 			{
				"name" : "bach.flat.mxo",
				"type" : "iLaX"
			}
, 			{
				"name" : "bach.gcd.maxpat",
				"bootpath" : "~/Documents/Max 8/Packages/bach/patchers",
				"patcherrelativepath" : "../../../../../../../Documents/Max 8/Packages/bach/patchers",
				"type" : "JSON",
				"implicit" : 1
			}
, 			{
				"name" : "bach.gt.mxo",
				"type" : "iLaX"
			}
, 			{
				"name" : "bach.hypercomment.mxo",
				"type" : "iLaX"
			}
, 			{
				"name" : "bach.is.mxo",
				"type" : "iLaX"
			}
, 			{
				"name" : "bach.iter.mxo",
				"type" : "iLaX"
			}
, 			{
				"name" : "bach.keys.mxo",
				"type" : "iLaX"
			}
, 			{
				"name" : "bach.length.mxo",
				"type" : "iLaX"
			}
, 			{
				"name" : "bach.lookup.maxpat",
				"bootpath" : "~/Documents/Max 8/Packages/bach/patchers",
				"patcherrelativepath" : "../../../../../../../Documents/Max 8/Packages/bach/patchers",
				"type" : "JSON",
				"implicit" : 1
			}
, 			{
				"name" : "bach.mapelem.mxo",
				"type" : "iLaX"
			}
, 			{
				"name" : "bach.neq.mxo",
				"type" : "iLaX"
			}
, 			{
				"name" : "bach.nth.mxo",
				"type" : "iLaX"
			}
, 			{
				"name" : "bach.pick.mxo",
				"type" : "iLaX"
			}
, 			{
				"name" : "bach.playkeys.mxo",
				"type" : "iLaX"
			}
, 			{
				"name" : "bach.portal.mxo",
				"type" : "iLaX"
			}
, 			{
				"name" : "bach.primeform.mxo",
				"type" : "iLaX"
			}
, 			{
				"name" : "bach.print.mxo",
				"type" : "iLaX"
			}
, 			{
				"name" : "bach.reg.mxo",
				"type" : "iLaX"
			}
, 			{
				"name" : "bach.repeat.maxpat",
				"bootpath" : "~/Documents/Max 8/Packages/bach/patchers",
				"patcherrelativepath" : "../../../../../../../Documents/Max 8/Packages/bach/patchers",
				"type" : "JSON",
				"implicit" : 1
			}
, 			{
				"name" : "bach.roll.mxo",
				"type" : "iLaX"
			}
, 			{
				"name" : "bach.round.maxpat",
				"bootpath" : "~/Documents/Max 8/Packages/bach/patchers",
				"patcherrelativepath" : "../../../../../../../Documents/Max 8/Packages/bach/patchers",
				"type" : "JSON",
				"implicit" : 1
			}
, 			{
				"name" : "bach.scale.maxpat",
				"bootpath" : "~/Documents/Max 8/Packages/bach/patchers",
				"patcherrelativepath" : "../../../../../../../Documents/Max 8/Packages/bach/patchers",
				"type" : "JSON",
				"implicit" : 1
			}
, 			{
				"name" : "bach.slice.mxo",
				"type" : "iLaX"
			}
, 			{
				"name" : "bach.sort.mxo",
				"type" : "iLaX"
			}
, 			{
				"name" : "bach.thin.mxo",
				"type" : "iLaX"
			}
, 			{
				"name" : "bach.times.maxpat",
				"bootpath" : "~/Documents/Max 8/Packages/bach/patchers",
				"patcherrelativepath" : "../../../../../../../Documents/Max 8/Packages/bach/patchers",
				"type" : "JSON",
				"implicit" : 1
			}
, 			{
				"name" : "bach.wrap.mxo",
				"type" : "iLaX"
			}
, 			{
				"name" : "ccm_logo.png",
				"bootpath" : "~/My Drive/FTH Drive/Workshops/bach 2023/materials/bach-workshop/media",
				"patcherrelativepath" : "../media",
				"type" : "PNG",
				"implicit" : 1
			}
, 			{
				"name" : "utils.credit.maxpat",
				"bootpath" : "~/My Drive/FTH Drive/Workshops/bach 2023/materials/bach-workshop/patchers",
				"patcherrelativepath" : ".",
				"type" : "JSON",
				"implicit" : 1
			}
 ],
		"autosave" : 0
	}

}
